<?xml version="1.0" standalone="no"?>
<!DOCTYPE svg PUBLIC "-//W3C//DTD SVG 20010904//EN"
 "http://www.w3.org/TR/2001/REC-SVG-20010904/DTD/svg10.dtd">
<svg version="1.0" xmlns="http://www.w3.org/2000/svg"
 width="338.000000pt" height="338.000000pt" viewBox="0 0 338.000000 338.000000"
 preserveAspectRatio="xMidYMid meet">
<metadata>
Created by potrace 1.14, written by Peter Selinger 2001-2017
</metadata>
<g transform="translate(0.000000,338.000000) scale(0.100000,-0.100000)"
fill="#000000" stroke="none">
<path d="M1539 3346 c-2 -2 -33 -7 -68 -10 -36 -4 -67 -9 -70 -10 -3 -2 -24
-7 -46 -10 -22 -4 -58 -11 -80 -17 -22 -6 -48 -13 -58 -15 -43 -8 -200 -71
-291 -116 -312 -155 -571 -407 -731 -711 -80 -151 -143 -329 -165 -462 -5 -33
-13 -71 -16 -85 -3 -14 -7 -99 -9 -190 -5 -285 40 -496 160 -747 200 -419 576
-740 1026 -877 169 -51 281 -68 464 -71 141 -3 195 1 320 20 135 20 334 84
467 150 77 39 240 136 258 155 3 3 23 18 45 35 65 47 229 212 287 289 179 235
297 518 335 801 15 111 8 382 -11 485 -10 52 -20 104 -22 115 -19 98 -100 299
-172 425 -244 426 -681 737 -1157 820 -38 7 -79 15 -90 17 -25 6 -371 14 -376
9z"/>
</g>
</svg>
